<?xml version="1.0" standalone="no"?>
<!DOCTYPE svg PUBLIC "-//W3C//DTD SVG 20010904//EN"
 "http://www.w3.org/TR/2001/REC-SVG-20010904/DTD/svg10.dtd">
<svg version="1.0" xmlns="http://www.w3.org/2000/svg"
 width="225.000000pt" height="225.000000pt" viewBox="0 0 225.000000 225.000000"
 preserveAspectRatio="xMidYMid meet">

<g transform="translate(0.000000,225.000000) scale(0.100000,-0.100000)"
fill="#000000" stroke="none">
<path d="M975 2239 c-245 -31 -485 -155 -665 -345 -518 -546 -360 -1439 315
-1774 557 -276 1230 -50 1505 505 186 376 148 831 -98 1161 -251 337 -642 505
-1057 453z m355 -59 c76 -17 76 -19 24 -51 -27 -17 -59 -40 -71 -51 -19 -18
-34 -21 -100 -19 -145 4 -349 -43 -473 -107 l-55 -29 -75 25 c-41 13 -79 28
-84 33 -12 10 117 93 202 129 83 35 199 68 284 80 74 10 284 4 348 -10z m64
-330 l134 -135 -95 -260 c-52 -143 -97 -261 -98 -263 -1 -2 -105 -23 -231 -47
l-228 -45 -24 23 c-13 12 -101 102 -194 199 l-170 178 22 72 c23 75 53 143 99
216 30 51 106 97 231 143 112 40 217 58 327 56 l93 -2 134 -135z m497 23 c91
-94 146 -174 204 -296 60 -126 65 -154 14 -77 -24 36 -81 104 -126 151 -66 68
-86 97 -100 140 -10 30 -36 82 -59 116 -53 78 -31 67 67 -34z m-99 -199 c77
-6 78 -6 132 -59 75 -74 129 -150 177 -248 38 -77 40 -86 34 -144 -8 -92 -49
-240 -88 -325 l-34 -74 -198 -18 c-189 -18 -199 -18 -211 -1 -7 9 -56 93 -109
187 l-97 169 98 264 97 265 61 -5 c34 -2 96 -7 138 -11z m-1667 -379 c-28 -97
-49 -252 -43 -315 3 -34 2 -38 -8 -25 -18 24 -28 152 -20 248 8 98 36 219 68
302 l23 60 3 -91 c2 -74 -2 -108 -23 -179z m420 43 c55 -57 139 -144 187 -193
l88 -90 -20 -205 c-11 -113 -20 -208 -20 -212 0 -3 -84 -34 -186 -68 l-186
-62 -75 73 c-103 102 -144 160 -159 227 -33 139 -27 319 14 457 17 56 22 62
78 96 60 36 151 78 169 79 6 0 55 -46 110 -102z m1466 -620 c0 -18 4 -66 8
-107 l7 -73 -47 -62 c-72 -96 -193 -204 -263 -237 -64 -30 -221 -67 -302 -71
l-47 -3 -30 117 -29 118 80 87 c44 49 113 120 154 160 l73 72 150 14 c83 8
171 15 198 16 47 1 47 1 48 -31z m-988 -239 c117 -51 213 -93 215 -94 7 -5 60
-240 56 -247 -11 -17 -145 -49 -253 -59 -108 -11 -121 -10 -196 10 -92 25
-277 114 -347 166 -47 35 -48 36 -50 95 -1 33 -2 68 -2 78 -1 13 36 30 179 79
99 34 181 62 183 62 2 1 99 -40 215 -90z"/>
</g>
</svg>
