<?xml version="1.0" standalone="no"?>
<!DOCTYPE svg PUBLIC "-//W3C//DTD SVG 20010904//EN"
 "http://www.w3.org/TR/2001/REC-SVG-20010904/DTD/svg10.dtd">
<svg version="1.0" xmlns="http://www.w3.org/2000/svg"
 width="225.000000pt" height="225.000000pt" viewBox="0 0 225.000000 225.000000"
 preserveAspectRatio="xMidYMid meet">

<g transform="translate(0.000000,225.000000) scale(0.100000,-0.100000)"
fill="#000000" stroke="none">
<path d="M975 2239 c-366 -46 -713 -302 -870 -642 -136 -294 -136 -650 0 -944
103 -224 306 -430 529 -538 373 -181 826 -140 1152 103 570 425 621 1235 108
1722 -248 236 -574 342 -919 299z m382 -100 c168 -38 340 -126 466 -239 l48
-43 -84 -86 c-89 -91 -162 -194 -204 -289 -30 -68 -73 -231 -73 -278 0 -34 -1
-34 -45 -34 -52 0 -50 -5 -60 178 -14 283 -98 596 -201 749 -24 36 -44 67 -44
69 0 7 122 -10 197 -27z m-276 -26 c128 -119 229 -454 246 -810 l6 -133 -86 0
-86 0 -6 38 c-3 20 -17 73 -31 117 -75 240 -312 453 -616 555 -38 13 -68 25
-68 28 0 17 183 134 265 170 65 28 184 65 245 75 67 11 80 7 131 -40z m-485
-357 c103 -49 197 -110 263 -170 101 -94 189 -242 209 -355 l10 -54 -157 6
c-256 11 -692 58 -796 85 -36 10 -36 23 2 152 33 114 92 230 169 333 l64 86
73 -20 c39 -11 113 -40 163 -63z m1421 -96 c22 -36 51 -93 67 -128 35 -80 78
-247 74 -292 l-3 -35 -80 -7 c-105 -10 -479 -27 -484 -22 -9 9 21 150 49 227
40 108 115 222 208 316 l75 75 28 -35 c15 -19 45 -63 66 -99z m-1803 -490
c176 -28 484 -58 666 -65 207 -8 200 -6 193 -53 -18 -134 -101 -283 -214 -388
-102 -93 -286 -194 -425 -232 l-71 -20 -37 43 c-102 123 -177 274 -216 436
-19 82 -38 299 -26 299 3 0 62 -9 130 -20z m1956 -55 c0 -3 -5 -49 -11 -102
-19 -177 -84 -348 -186 -491 l-44 -62 -48 40 c-144 122 -266 346 -287 528 l-6
60 103 6 c57 3 165 10 239 15 176 11 240 12 240 6z m-843 -162 c-16 -362 -117
-696 -247 -817 l-51 -48 -55 7 c-76 9 -186 41 -269 77 -83 36 -265 153 -265
171 0 3 30 15 68 27 37 12 108 42 157 67 270 135 443 343 486 587 l11 66 86 0
85 0 -6 -137z m183 98 c0 -51 41 -212 73 -283 43 -96 115 -198 204 -288 l84
-85 -48 -44 c-61 -56 -195 -144 -269 -177 -84 -37 -217 -73 -308 -83 -45 -5
-82 -8 -84 -7 -1 2 18 32 42 69 104 155 188 470 202 756 8 186 7 181 59 181
l45 0 0 -39z"/>
</g>
</svg>
